HIERARCHY
ROOT mixamorig:Hips
{
	OFFSET 0.000000 104.274902 0.000000
	CHANNELS 6 Xposition Yposition Zposition Xrotation Yrotation Zrotation
	JOINT mixamorig:Spine
	{
		OFFSET 0.000000 10.181549 0.131524
		CHANNELS 6 Xposition Yposition Zposition Xrotation Yrotation Zrotation
		JOINT mixamorig:Spine1
		{
			OFFSET 0.000000 9.893990 -1.470706
			CHANNELS 3 Xrotation Yrotation Zrotation
			JOINT mixamorig:Spine2
			{
				OFFSET 0.000000 9.220787 -1.370637
				CHANNELS 3 Xrotation Yrotation Zrotation
				JOINT mixamorig:Neck
				{
					OFFSET 0.000000 16.740372 -2.049022
					CHANNELS 6 Xposition Yposition Zposition Xrotation Yrotation Zrotation
					JOINT mixamorig:Head
					{
						OFFSET 0.000000 9.617859 1.684976
						CHANNELS 6 Xposition Yposition Zposition Xrotation Yrotation Zrotation
						JOINT mixamorig:HeadTop_End
						{
							OFFSET 0.000000 22.037384 7.501072
							CHANNELS 6 Xposition Yposition Zposition Xrotation Yrotation Zrotation
							End Site
							{
								OFFSET 0.000000 23.106567 -2.828246
							}
						}
					}
				}
				JOINT mixamorig:RightShoulder
				{
					OFFSET -4.570000 11.014877 -2.160840
					CHANNELS 6 Xposition Yposition Zposition Xrotation Yrotation Zrotation
					JOINT mixamorig:RightArm
					{
						OFFSET -10.592867 -0.524796 -2.232105
						CHANNELS 3 Xrotation Yrotation Zrotation
						JOINT mixamorig:RightForeArm
						{
							OFFSET -27.841497 0.000000 -0.000002
							CHANNELS 3 Xrotation Yrotation Zrotation
							JOINT mixamorig:RightHand
							{
								OFFSET -28.328812 0.000000 -0.000001
								CHANNELS 3 Xrotation Yrotation Zrotation
								JOINT mixamorig:RightHandThumb1
								{
									OFFSET -2.464798 -1.573990 2.681911
									CHANNELS 6 Xposition Yposition Zposition Xrotation Yrotation Zrotation
									JOINT mixamorig:RightHandThumb2
									{
										OFFSET -3.244781 -1.873383 1.873376
										CHANNELS 3 Xrotation Yrotation Zrotation
										JOINT mixamorig:RightHandThumb3
										{
											OFFSET -2.646263 -1.527817 1.527818
											CHANNELS 6 Xposition Yposition Zposition Xrotation Yrotation Zrotation
											JOINT mixamorig:RightHandThumb4
											{
												OFFSET -1.994591 -1.151581 1.151575
												CHANNELS 6 Xposition Yposition Zposition Xrotation Yrotation Zrotation
												End Site
												{
													OFFSET -1.860176 -1.142715 1.365483
												}
											}
										}
									}
								}
								JOINT mixamorig:RightHandIndex1
								{
									OFFSET -9.108299 -0.517883 2.259803
									CHANNELS 6 Xposition Yposition Zposition Xrotation Yrotation Zrotation
									JOINT mixamorig:RightHandIndex2
									{
										OFFSET -3.699997 0.000000 0.000000
										CHANNELS 3 Xrotation Yrotation Zrotation
										JOINT mixamorig:RightHandIndex3
										{
											OFFSET -2.850006 0.000000 0.000000
											CHANNELS 3 Xrotation Yrotation Zrotation
											JOINT mixamorig:RightHandIndex4
											{
												OFFSET -2.772194 0.000000 0.000000
												CHANNELS 3 Xrotation Yrotation Zrotation
												End Site
												{
													OFFSET -2.772202 0.000000 -0.000484
												}
											}
										}
									}
								}
								JOINT mixamorig:RightHandMiddle1
								{
									OFFSET -9.532501 0.000000 -0.000000
									CHANNELS 6 Xposition Yposition Zposition Xrotation Yrotation Zrotation
									JOINT mixamorig:RightHandMiddle2
									{
										OFFSET -3.699997 0.000000 0.000000
										CHANNELS 3 Xrotation Yrotation Zrotation
										JOINT mixamorig:RightHandMiddle3
										{
											OFFSET -2.949997 0.000000 0.000000
											CHANNELS 3 Xrotation Yrotation Zrotation
											JOINT mixamorig:RightHandMiddle4
											{
												OFFSET -2.946594 0.000000 0.000000
												CHANNELS 3 Xrotation Yrotation Zrotation
												End Site
												{
													OFFSET -2.946602 0.000000 -0.000982
												}
											}
										}
									}
								}
								JOINT mixamorig:RightHandRing1
								{
									OFFSET -9.103600 -0.043106 -1.865100
									CHANNELS 6 Xposition Yposition Zposition Xrotation Yrotation Zrotation
									JOINT mixamorig:RightHandRing2
									{
										OFFSET -3.379303 0.000000 0.000000
										CHANNELS 3 Xrotation Yrotation Zrotation
										JOINT mixamorig:RightHandRing3
										{
											OFFSET -2.889694 0.000000 0.000000
											CHANNELS 3 Xrotation Yrotation Zrotation
											JOINT mixamorig:RightHandRing4
											{
												OFFSET -2.638802 0.000000 0.000000
												CHANNELS 3 Xrotation Yrotation Zrotation
												End Site
												{
													OFFSET -2.638802 0.000000 0.004218
												}
											}
										}
									}
								}
								JOINT mixamorig:RightHandPinky1
								{
									OFFSET -8.076698 -0.486725 -3.806299
									CHANNELS 6 Xposition Yposition Zposition Xrotation Yrotation Zrotation
									JOINT mixamorig:RightHandPinky2
									{
										OFFSET -3.600006 0.000000 0.000000
										CHANNELS 3 Xrotation Yrotation Zrotation
										JOINT mixamorig:RightHandPinky3
										{
											OFFSET -2.099998 0.000000 0.000000
											CHANNELS 3 Xrotation Yrotation Zrotation
											JOINT mixamorig:RightHandPinky4
											{
												OFFSET -2.115791 0.000000 0.000000
												CHANNELS 3 Xrotation Yrotation Zrotation
												End Site
												{
													OFFSET -2.115799 0.000000 0.000174
												}
											}
										}
									}
								}
							}
						}
					}
				}
				JOINT mixamorig:LeftShoulder
				{
					OFFSET 4.570400 11.014679 -2.160816
					CHANNELS 6 Xposition Yposition Zposition Xrotation Yrotation Zrotation
					JOINT mixamorig:LeftArm
					{
						OFFSET 10.592373 -0.524597 -2.232116
						CHANNELS 3 Xrotation Yrotation Zrotation
						JOINT mixamorig:LeftForeArm
						{
							OFFSET 27.841488 0.000000 0.000001
							CHANNELS 3 Xrotation Yrotation Zrotation
							JOINT mixamorig:LeftHand
							{
								OFFSET 28.328808 0.000000 -0.000000
								CHANNELS 3 Xrotation Yrotation Zrotation
								JOINT mixamorig:LeftHandThumb1
								{
									OFFSET 2.466103 -1.576202 2.681698
									CHANNELS 6 Xposition Yposition Zposition Xrotation Yrotation Zrotation
									JOINT mixamorig:LeftHandThumb2
									{
										OFFSET 3.243317 -1.872528 1.872530
										CHANNELS 3 Xrotation Yrotation Zrotation
										JOINT mixamorig:LeftHandThumb3
										{
											OFFSET 2.647881 -1.528763 1.528754
											CHANNELS 6 Xposition Yposition Zposition Xrotation Yrotation Zrotation
											JOINT mixamorig:LeftHandThumb4
											{
												OFFSET 1.998924 -1.154083 1.154080
												CHANNELS 6 Xposition Yposition Zposition Xrotation Yrotation Zrotation
												End Site
												{
													OFFSET 1.884041 -1.149155 1.337651
												}
											}
										}
									}
								}
								JOINT mixamorig:LeftHandIndex1
								{
									OFFSET 9.109299 -0.518005 2.259900
									CHANNELS 6 Xposition Yposition Zposition Xrotation Yrotation Zrotation
									JOINT mixamorig:LeftHandIndex2
									{
										OFFSET 3.699997 0.000000 0.000000
										CHANNELS 3 Xrotation Yrotation Zrotation
										JOINT mixamorig:LeftHandIndex3
										{
											OFFSET 2.850006 0.000000 0.000000
											CHANNELS 3 Xrotation Yrotation Zrotation
											JOINT mixamorig:LeftHandIndex4
											{
												OFFSET 2.774895 0.000000 0.000000
												CHANNELS 3 Xrotation Yrotation Zrotation
												End Site
												{
													OFFSET 2.774902 0.000000 -0.000072
												}
											}
										}
									}
								}
								JOINT mixamorig:LeftHandMiddle1
								{
									OFFSET 9.533401 0.000000 0.000000
									CHANNELS 6 Xposition Yposition Zposition Xrotation Yrotation Zrotation
									JOINT mixamorig:LeftHandMiddle2
									{
										OFFSET 3.699997 0.000000 0.000000
										CHANNELS 3 Xrotation Yrotation Zrotation
										JOINT mixamorig:LeftHandMiddle3
										{
											OFFSET 2.949997 0.000000 0.000000
											CHANNELS 3 Xrotation Yrotation Zrotation
											JOINT mixamorig:LeftHandMiddle4
											{
												OFFSET 2.952896 0.000000 0.000000
												CHANNELS 3 Xrotation Yrotation Zrotation
												End Site
												{
													OFFSET 2.952904 0.000000 0.000165
												}
											}
										}
									}
								}
								JOINT mixamorig:LeftHandRing1
								{
									OFFSET 9.104500 -0.042999 -1.865101
									CHANNELS 6 Xposition Yposition Zposition Xrotation Yrotation Zrotation
									JOINT mixamorig:LeftHandRing2
									{
										OFFSET 3.149994 0.000000 0.000000
										CHANNELS 3 Xrotation Yrotation Zrotation
										JOINT mixamorig:LeftHandRing3
										{
											OFFSET 2.950005 0.000000 0.000000
											CHANNELS 3 Xrotation Yrotation Zrotation
											JOINT mixamorig:LeftHandRing4
											{
												OFFSET 2.644302 0.000000 0.000000
												CHANNELS 3 Xrotation Yrotation Zrotation
												End Site
												{
													OFFSET 2.644302 0.000000 0.000083
												}
											}
										}
									}
								}
								JOINT mixamorig:LeftHandPinky1
								{
									OFFSET 8.077805 -0.486893 -3.806302
									CHANNELS 6 Xposition Yposition Zposition Xrotation Yrotation Zrotation
									JOINT mixamorig:LeftHandPinky2
									{
										OFFSET 3.600006 0.000000 0.000000
										CHANNELS 3 Xrotation Yrotation Zrotation
										JOINT mixamorig:LeftHandPinky3
										{
											OFFSET 2.099998 0.000000 0.000000
											CHANNELS 3 Xrotation Yrotation Zrotation
											JOINT mixamorig:LeftHandPinky4
											{
												OFFSET 2.125496 0.000000 0.000000
												CHANNELS 3 Xrotation Yrotation Zrotation
												End Site
												{
													OFFSET 2.125504 0.000000 -0.001254
												}
											}
										}
									}
								}
							}
						}
					}
				}
			}
		}
	}
	JOINT mixamorig:RightUpLeg
	{
		OFFSET -8.207800 -6.751701 -1.599544
		CHANNELS 6 Xposition Yposition Zposition Xrotation Yrotation Zrotation
		JOINT mixamorig:RightLeg
		{
			OFFSET 0.000004 -44.370152 0.345934
			CHANNELS 3 Xrotation Yrotation Zrotation
			JOINT mixamorig:RightFoot
			{
				OFFSET 0.000004 -44.423664 -3.043535
				CHANNELS 3 Xrotation Yrotation Zrotation
				JOINT mixamorig:RightToeBase
				{
					OFFSET 0.000001 -8.728691 10.710592
					CHANNELS 3 Xrotation Yrotation Zrotation
					JOINT mixamorig:RightToe_End
					{
						OFFSET 0.000000 -0.000665 9.278101
						CHANNELS 3 Xrotation Yrotation Zrotation
						End Site
						{
							OFFSET 0.000000 -0.000665 9.278103
						}
					}
				}
			}
		}
	}
	JOINT mixamorig:LeftUpLeg
	{
		OFFSET 8.207800 -6.751701 -1.599544
		CHANNELS 6 Xposition Yposition Zposition Xrotation Yrotation Zrotation
		JOINT mixamorig:LeftLeg
		{
			OFFSET 0.000004 -44.370037 0.346940
			CHANNELS 3 Xrotation Yrotation Zrotation
			JOINT mixamorig:LeftFoot
			{
				OFFSET 0.000004 -44.423611 -3.044388
				CHANNELS 3 Xrotation Yrotation Zrotation
				JOINT mixamorig:LeftToeBase
				{
					OFFSET 0.000001 -8.728690 10.710592
					CHANNELS 3 Xrotation Yrotation Zrotation
					JOINT mixamorig:LeftToe_End
					{
						OFFSET 0.000000 -0.000680 9.278101
						CHANNELS 3 Xrotation Yrotation Zrotation
						End Site
						{
							OFFSET 0.000000 -0.000680 9.278101
						}
					}
				}
			}
		}
	}
}
MOTION
Frames: 4
Frame Time: 0.033333
-0.251021 113.256668 -3.150436 -95.365806 -7.236973 0.417122 0.000000 10.181558 0.131522 0.807495 0.608938 -2.157671 2.166863 1.742097 -0.647243 2.175974 1.730778 -0.649602 -0.000001 16.740366 -2.049027 -3.748925 13.158872 -4.240260 -0.000000 9.617849 1.684989 2.827223 47.143253 -4.195803 0.000014 22.037384 7.501073 0.000001 -0.000000 0.000001 -4.570000 11.014865 -2.160852 0.734232 3.259865 9.953831 38.153696 29.451315 34.439231 0.000330 102.443637 -0.000283 -38.622934 12.192805 12.532282 -2.464803 -1.574005 2.681911 -8.245047 0.297073 -8.931531 7.579919 -24.795284 -2.906952 -2.646270 -1.527823 1.527822 -2.801467 -37.398533 -21.178873 -1.994597 -1.151585 1.151578 0.000004 -0.000001 -0.000000 -9.108302 -0.517881 2.259808 0.905459 -3.314675 34.539464 0.218003 -1.409599 17.581779 0.218168 -1.410133 17.588724 0.000002 -0.000000 0.000003 -9.532495 0.000004 0.000003 -0.242000 -3.204339 32.825353 0.218128 -1.409972 17.586648 0.218159 -1.410152 17.588762 -0.000000 -0.000000 0.000003 -9.103601 -0.043111 -1.865096 -0.300126 -2.822107 28.489347 0.218006 -1.409588 17.581786 0.218166 -1.410142 17.588738 0.000001 -0.000001 0.000000 -8.076695 -0.486713 -3.806296 0.330077 -3.878157 20.013568 0.218165 -1.410143 17.588683 0.218172 -1.410131 17.588687 0.000002 -0.000000 0.000000 4.570401 11.014693 -2.160830 0.563173 0.114240 -3.287216 22.146002 -32.794054 -61.667333 -0.000024 -79.577605 -0.000040 -1.632023 7.060255 -14.772268 2.466109 -1.576217 2.681696 -5.218487 -3.359609 5.596923 7.385488 23.148046 2.272585 2.647887 -1.528765 1.528757 -6.113308 7.849302 15.229471 1.998926 -1.154069 1.154089 0.000001 0.000008 -0.000001 9.109287 -0.518035 2.259893 0.915734 5.403997 -29.714157 0.382333 2.083653 -20.795013 0.380438 2.078618 -20.742591 0.000001 0.000002 -0.000000 9.533403 -0.000013 -0.000007 0.656270 4.925823 -25.952631 0.379089 2.075086 -20.705416 0.379091 2.075065 -20.705404 -0.000001 0.000001 -0.000002 9.104498 -0.043019 -1.865105 0.574676 4.751550 -24.069199 0.379087 2.075087 -20.705411 0.379083 2.075071 -20.705404 0.000000 -0.000000 0.000004 8.077813 -0.486900 -3.806304 0.322871 4.082556 -17.072543 0.379078 2.075077 -20.705404 0.379092 2.075087 -20.705403 0.000002 -0.000000 0.000000 -8.207800 -6.751709 -1.599546 -0.319562 -15.643054 -12.225328 7.929564 -1.898798 -5.018752 35.913206 -30.214756 29.622182 -5.045822 0.000006 0.000017 -0.000000 0.000000 -0.000001 8.207799 -6.751708 -1.599546 5.325766 15.795518 7.911752 6.290267 -0.491245 5.224596 34.393766 30.474586 -29.359377 -7.086182 -0.000005 -0.000003 -0.000001 -0.000000 0.000000 
-0.251537 113.244957 -3.151939 -95.468054 -7.232681 0.420506 -0.000001 10.181560 0.131514 0.932818 0.609221 -2.176291 2.185831 1.742098 -0.647243 2.195125 1.730778 -0.649603 -0.000001 16.740381 -2.049014 -3.558044 14.441499 -4.000335 -0.000004 9.617863 1.684981 2.891576 45.820153 -4.587255 0.000008 22.037384 7.501066 0.000000 0.000002 -0.000000 -4.570002 11.014879 -2.160837 0.735898 3.250402 9.953745 38.141996 29.463503 34.410274 0.000295 102.443610 -0.000232 -38.620048 12.203443 12.518648 -2.464803 -1.573965 2.681912 -8.245045 0.297073 -8.931532 7.579928 -24.795282 -2.906956 -2.646270 -1.527835 1.527825 -2.801467 -37.398527 -21.178871 -1.994582 -1.151585 1.151576 0.000004 -0.000001 -0.000000 -9.108294 -0.517862 2.259809 0.905458 -3.314677 34.539464 0.218002 -1.409599 17.581781 0.218167 -1.410133 17.588722 0.000000 -0.000000 0.000001 -9.532503 0.000019 0.000004 -0.241999 -3.204339 32.825353 0.218127 -1.409972 17.586648 0.218161 -1.410153 17.588757 0.000001 -0.000001 0.000002 -9.103586 -0.043100 -1.865097 -0.300126 -2.822108 28.489351 0.218003 -1.409588 17.581786 0.218164 -1.410142 17.588738 -0.000001 -0.000002 0.000003 -8.076695 -0.486683 -3.806293 0.330077 -3.878158 20.013568 0.218169 -1.410143 17.588683 0.218172 -1.410132 17.588688 0.000001 0.000000 0.000002 4.570400 11.014681 -2.160808 0.563769 0.124697 -3.290604 22.141602 -32.800662 -61.629589 -0.000010 -79.623272 0.000000 -1.596924 6.998821 -14.723299 2.466095 -1.576202 2.681700 -5.218486 -3.359608 5.596923 7.385488 23.148051 2.272582 2.647891 -1.528762 1.528750 -6.113308 7.849305 15.229471 1.998913 -1.154088 1.154087 0.000001 -0.000001 0.000002 9.109303 -0.518004 2.259897 0.915738 5.404001 -29.714157 0.382334 2.083652 -20.795015 0.380437 2.078621 -20.742591 0.000003 -0.000001 0.000003 9.533403 0.000018 0.000000 0.656272 4.925822 -25.952627 0.379090 2.075078 -20.705416 0.379088 2.075065 -20.705404 0.000003 -0.000001 0.000001 9.104501 -0.042988 -1.865101 0.574679 4.751553 -24.069199 0.379085 2.075085 -20.705411 0.379086 2.075074 -20.705404 -0.000001 0.000001 0.000002 8.077798 -0.486899 -3.806302 0.322874 4.082553 -17.072543 0.379078 2.075076 -20.705403 0.379092 2.075087 -20.705406 -0.000000 -0.000002 0.000000 -8.207804 -6.751706 -1.599552 -0.237389 -15.662375 -12.247831 7.955003 -1.870567 -5.018811 35.902855 -30.214247 29.620358 -5.045824 0.000003 -0.000011 -0.000002 0.000001 0.000000 8.207800 -6.751697 -1.599551 5.433265 15.827109 7.897016 6.272550 -0.515923 5.224535 34.387458 30.476079 -29.360012 -7.086205 0.000023 -0.000013 -0.000001 0.000002 -0.000000 
-0.251819 113.233360 -3.153442 -95.571811 -7.232890 0.421161 -0.000000 10.181546 0.131538 1.064744 0.609457 -2.196696 2.211482 1.742098 -0.647243 2.220864 1.730778 -0.649602 -0.000001 16.740362 -2.049013 -3.571431 14.431408 -3.968589 -0.000001 9.617845 1.684973 2.854582 45.809153 -4.721379 -0.000003 22.037384 7.501081 -0.000001 0.000001 0.000000 -4.570000 11.014871 -2.160837 0.739974 3.223365 9.965592 38.132779 29.471122 34.358450 0.000257 102.453835 -0.000215 -38.616821 12.215408 12.503336 -2.464805 -1.573996 2.681912 -8.245044 0.297073 -8.931528 7.579920 -24.795284 -2.906952 -2.646270 -1.527789 1.527825 -2.801470 -37.398527 -21.178866 -1.994587 -1.151591 1.151572 0.000004 -0.000001 0.000001 -9.108302 -0.517877 2.259808 0.905458 -3.314677 34.539464 0.218002 -1.409599 17.581785 0.218166 -1.410133 17.588721 0.000000 -0.000000 0.000005 -9.532495 0.000008 0.000004 -0.241999 -3.204340 32.825353 0.218128 -1.409972 17.586646 0.218160 -1.410153 17.588760 0.000000 -0.000000 0.000002 -9.103609 -0.043111 -1.865095 -0.300125 -2.822108 28.489356 0.218005 -1.409588 17.581788 0.218163 -1.410141 17.588736 0.000000 -0.000000 -0.000000 -8.076699 -0.486717 -3.806291 0.330077 -3.878159 20.013569 0.218166 -1.410143 17.588681 0.218171 -1.410131 17.588688 0.000001 -0.000000 -0.000000 4.570398 11.014683 -2.160813 0.565560 0.155041 -3.303719 22.128071 -32.831121 -61.579394 -0.000058 -79.663037 -0.000038 -1.560115 6.935211 -14.673512 2.466104 -1.576189 2.681702 -5.218492 -3.359611 5.596925 7.385487 23.148044 2.272581 2.647876 -1.528763 1.528751 -6.113304 7.849305 15.229476 1.998914 -1.154062 1.154081 0.000003 0.000003 -0.000002 9.109303 -0.518004 2.259903 0.915735 5.403997 -29.714154 0.382335 2.083652 -20.795016 0.380436 2.078623 -20.742591 0.000002 -0.000000 -0.000001 9.533411 0.000017 0.000004 0.656267 4.925824 -25.952625 0.379088 2.075084 -20.705415 0.379089 2.075064 -20.705406 0.000002 -0.000001 -0.000000 9.104521 -0.042986 -1.865094 0.574672 4.751550 -24.069197 0.379084 2.075084 -20.705413 0.379087 2.075072 -20.705401 -0.000003 -0.000004 0.000001 8.077809 -0.486879 -3.806297 0.322868 4.082553 -17.072541 0.379079 2.075077 -20.705403 0.379091 2.075083 -20.705403 -0.000000 -0.000001 0.000000 -8.207806 -6.751714 -1.599541 -0.155109 -15.685698 -12.269050 7.976665 -1.855497 -5.018855 35.885080 -30.213448 29.619102 -5.045823 0.000013 -0.000010 0.000003 0.000001 -0.000001 8.207798 -6.751696 -1.599533 5.536282 15.881365 7.886013 6.263597 -0.574164 5.224515 34.381075 30.477991 -29.359100 -7.086183 0.000003 0.000013 -0.000001 0.000001 -0.000001 
-0.252369 113.223511 -3.154564 -95.665754 -7.230250 0.424901 -0.000000 10.181552 0.131526 1.202053 0.603851 -2.218675 2.226876 1.742098 -0.640155 2.236475 1.730776 -0.641504 -0.000001 16.740368 -2.049022 -3.621946 14.421528 -3.920732 -0.000000 9.617840 1.684966 2.860150 45.777161 -4.866271 0.000005 22.037384 7.501081 -0.000001 -0.000003 0.000000 -4.570001 11.014879 -2.160834 0.742854 3.178619 9.983816 38.138345 29.489017 34.300189 0.000284 102.458534 -0.000232 -38.614871 12.216662 12.495878 -2.464810 -1.573995 2.681911 -8.245045 0.297069 -8.931533 7.579918 -24.795277 -2.906947 -2.646259 -1.527819 1.527818 -2.801467 -37.398530 -21.178871 -1.994587 -1.151597 1.151563 0.000004 0.000003 0.000001 -9.108310 -0.517881 2.259804 0.905459 -3.314677 34.539461 0.218004 -1.409599 17.581779 0.218168 -1.410133 17.588724 0.000000 -0.000001 0.000003 -9.532518 0.000008 -0.000000 -0.242000 -3.204340 32.825356 0.218127 -1.409972 17.586646 0.218159 -1.410152 17.588762 0.000000 -0.000001 0.000003 -9.103608 -0.043111 -1.865099 -0.300126 -2.822108 28.489351 0.218010 -1.409588 17.581786 0.218164 -1.410142 17.588739 0.000001 -0.000001 0.000003 -8.076707 -0.486698 -3.806295 0.330077 -3.878158 20.013568 0.218168 -1.410143 17.588683 0.218172 -1.410131 17.588687 -0.000001 0.000000 -0.000001 4.570400 11.014703 -2.160815 0.562946 0.203809 -3.324910 22.145239 -32.872625 -61.501318 0.000042 -79.719058 0.000065 -1.520815 6.868609 -14.619687 2.466111 -1.576193 2.681700 -5.218488 -3.359607 5.596927 7.385487 23.148049 2.272586 2.647872 -1.528763 1.528751 -6.113304 7.849311 15.229478 1.998914 -1.154069 1.154075 0.000002 0.000001 -0.000002 9.109303 -0.518031 2.259899 0.915738 5.403994 -29.714157 0.382334 2.083650 -20.795016 0.380440 2.078618 -20.742584 0.000002 -0.000001 0.000003 9.533422 -0.000013 -0.000005 0.656271 4.925821 -25.952632 0.379086 2.075082 -20.705416 0.379089 2.075065 -20.705404 0.000003 0.000002 -0.000001 9.104505 -0.043015 -1.865103 0.574679 4.751552 -24.069204 0.379087 2.075084 -20.705415 0.379085 2.075074 -20.705404 0.000000 0.000005 -0.000001 8.077809 -0.486905 -3.806306 0.322873 4.082553 -17.072544 0.379081 2.075076 -20.705404 0.379093 2.075082 -20.705404 0.000002 -0.000003 -0.000001 -8.207803 -6.751709 -1.599550 -0.082594 -15.711238 -12.291585 8.002865 -1.815378 -5.018911 35.872297 -30.213075 29.617141 -5.045828 -0.000001 0.000010 0.000000 0.000001 -0.000001 8.207797 -6.751695 -1.599549 5.626913 15.953536 7.882478 6.257461 -0.669828 5.224510 34.375007 30.479945 -29.347810 -7.086182 0.000005 -0.000009 0.000002 -0.000000 0.000000 
